<?xml version="1.0" encoding="UTF-8"?>
<svg width="241px" height="241px" viewBox="0 0 241 241" version="1.1" xmlns="http://www.w3.org/2000/svg" xmlns:xlink="http://www.w3.org/1999/xlink">
    <!-- Generator: Sketch 50 (54983) - http://www.bohemiancoding.com/sketch -->
    <title>Group</title>
    <desc>Created with Sketch.</desc>
    <defs></defs>
    <g id="Page-1" stroke="none" stroke-width="1" fill="none" fill-rule="evenodd">
        <g id="Group" fill="#333333" fill-rule="nonzero">
            <path d="M120.11217,0 C53.8390989,0 0,53.7147592 0,120.11217 C0,125.583118 0.373019161,130.929726 1.11905748,136.276334 C1.36773692,136.151994 1.49207664,136.027654 1.49207664,136.027654 L62.0455205,174.324288 C62.0455205,174.324288 86.9134645,188.872035 94.6225272,163.755412 L95.1198861,49.6115484 C95.1198861,49.6115484 94.6225272,33.0743656 107.553858,47.0004143 C107.553858,47.0004143 160.2739,44.3892802 177.432781,57.3206111 C177.432781,57.3206111 213.118281,62.5428793 197.575816,80.5721388 C197.575816,80.5721388 184.147126,82.685914 181.535992,82.685914 C178.924858,82.685914 139.136147,117.376696 116.381978,94.6225272 C116.381978,94.6225272 123.096323,110.662351 140.130865,112.154428 L139.633506,163.631072 C139.633506,163.631072 130.308027,233.758674 74.9768514,227.541688 L67.0191093,227.790368 C83.0589332,235.62377 100.963853,240.1 120.11217,240.1 C186.385241,240.1 240.22434,186.385241 240.22434,119.98783 C240.22434,53.5904195 186.509581,0 120.11217,0 Z" id="Shape-Copy-5"></path>
        </g>
    </g>
</svg>